<mxfile host="app.diagrams.net" modified="2022-11-11T20:27:07.511Z" agent="5.0 (Macintosh; Intel Mac OS X 10_14_6) AppleWebKit/537.36 (KHTML, like Gecko) Chrome/106.0.0.0 Safari/537.36" etag="hrqcc4ADa1DMZHKU1KpB" version="20.4.1" type="github">
  <diagram id="mtNPIXfycz4pyDT4KLV6" name="第 1 页">
    <mxGraphModel dx="1577" dy="890" grid="1" gridSize="10" guides="1" tooltips="1" connect="1" arrows="1" fold="1" page="1" pageScale="1" pageWidth="827" pageHeight="1169" math="0" shadow="0">
      <root>
        <mxCell id="0" />
        <mxCell id="1" parent="0" />
        <mxCell id="2mwsBVRWDG2e_CRYkT2q-42" value="" style="rounded=1;whiteSpace=wrap;html=1;strokeWidth=2;fillWeight=4;hachureGap=8;hachureAngle=45;fillColor=#f8cecc;sketch=0;shadow=0;fillStyle=auto;strokeColor=#b85450;fontSize=20;" vertex="1" parent="1">
          <mxGeometry x="320" y="480" width="600" height="120" as="geometry" />
        </mxCell>
        <mxCell id="2mwsBVRWDG2e_CRYkT2q-41" value="" style="rounded=1;whiteSpace=wrap;html=1;strokeWidth=2;fillWeight=4;hachureGap=8;hachureAngle=45;fillColor=#d5e8d4;sketch=0;shadow=0;fillStyle=auto;strokeColor=#82b366;fontSize=20;" vertex="1" parent="1">
          <mxGeometry x="320" y="640" width="600" height="120" as="geometry" />
        </mxCell>
        <mxCell id="2mwsBVRWDG2e_CRYkT2q-40" value="" style="rounded=1;whiteSpace=wrap;html=1;strokeWidth=2;fillWeight=4;hachureGap=8;hachureAngle=45;fillColor=#fff2cc;sketch=0;shadow=0;fillStyle=auto;strokeColor=#d6b656;fontSize=20;" vertex="1" parent="1">
          <mxGeometry x="320" y="280" width="600" height="120" as="geometry" />
        </mxCell>
        <mxCell id="2mwsBVRWDG2e_CRYkT2q-2" value="事务请求" style="shape=umlLifeline;perimeter=lifelinePerimeter;whiteSpace=wrap;html=1;container=1;collapsible=0;recursiveResize=0;outlineConnect=0;fillColor=#b0e3e6;strokeColor=#0e8088;sketch=1;fillStyle=auto;rounded=1;fontSize=20;fontStyle=1;" vertex="1" parent="1">
          <mxGeometry x="120" y="160" width="120" height="680" as="geometry" />
        </mxCell>
        <mxCell id="2mwsBVRWDG2e_CRYkT2q-6" value="server" style="shape=umlLifeline;perimeter=lifelinePerimeter;whiteSpace=wrap;html=1;container=1;collapsible=0;recursiveResize=0;outlineConnect=0;fillColor=#e3c800;strokeColor=#B09500;sketch=1;fillStyle=auto;rounded=1;fontColor=#000000;fontSize=20;fontStyle=1;strokeWidth=3;" vertex="1" parent="1">
          <mxGeometry x="320" y="160" width="120" height="680" as="geometry" />
        </mxCell>
        <mxCell id="2mwsBVRWDG2e_CRYkT2q-28" value="" style="html=1;points=[];perimeter=orthogonalPerimeter;rounded=1;shadow=0;sketch=1;fillStyle=auto;fillColor=#fff2cc;strokeColor=#d6b656;strokeWidth=5;gradientColor=none;" vertex="1" parent="2mwsBVRWDG2e_CRYkT2q-6">
          <mxGeometry x="56" y="70" width="10" height="570" as="geometry" />
        </mxCell>
        <mxCell id="2mwsBVRWDG2e_CRYkT2q-29" value="" style="endArrow=classic;html=1;rounded=0;fillColor=#d5e8d4;strokeColor=#82b366;strokeWidth=5;sketch=1;shadow=1;fontStyle=1;fontSize=15;" edge="1" parent="2mwsBVRWDG2e_CRYkT2q-6">
          <mxGeometry width="50" height="50" relative="1" as="geometry">
            <mxPoint x="80" y="360" as="sourcePoint" />
            <mxPoint x="250" y="360" as="targetPoint" />
          </mxGeometry>
        </mxCell>
        <mxCell id="2mwsBVRWDG2e_CRYkT2q-7" value="binlog" style="shape=umlLifeline;perimeter=lifelinePerimeter;whiteSpace=wrap;html=1;container=1;collapsible=0;recursiveResize=0;outlineConnect=0;fillColor=#60a917;strokeColor=#2D7600;rounded=1;sketch=1;fontColor=#330000;fontSize=20;fontStyle=1;shadow=0;strokeWidth=3;" vertex="1" parent="1">
          <mxGeometry x="520" y="160" width="120" height="680" as="geometry" />
        </mxCell>
        <mxCell id="2mwsBVRWDG2e_CRYkT2q-21" value="" style="html=1;points=[];perimeter=orthogonalPerimeter;rounded=1;shadow=0;sketch=1;fillStyle=auto;fillColor=#d5e8d4;strokeColor=#82b366;strokeWidth=5;fontStyle=1;fontSize=15;" vertex="1" parent="2mwsBVRWDG2e_CRYkT2q-7">
          <mxGeometry x="56.7" y="350" width="10" height="50.32" as="geometry" />
        </mxCell>
        <mxCell id="2mwsBVRWDG2e_CRYkT2q-16" value="" style="endArrow=classic;html=1;rounded=0;fillColor=#f8cecc;strokeColor=#b85450;strokeWidth=4;sketch=1;shadow=1;fontStyle=1;fontSize=15;" edge="1" parent="1">
          <mxGeometry width="50" height="50" relative="1" as="geometry">
            <mxPoint x="400" y="322" as="sourcePoint" />
            <mxPoint x="770" y="322" as="targetPoint" />
          </mxGeometry>
        </mxCell>
        <mxCell id="2mwsBVRWDG2e_CRYkT2q-8" value="redolog" style="shape=umlLifeline;perimeter=lifelinePerimeter;whiteSpace=wrap;html=1;container=1;collapsible=0;recursiveResize=0;outlineConnect=0;fillColor=#d0cee2;strokeColor=#56517e;rounded=1;sketch=1;shadow=0;fontStyle=1;fontSize=20;strokeWidth=3;" vertex="1" parent="1">
          <mxGeometry x="720" y="160" width="120" height="680" as="geometry" />
        </mxCell>
        <mxCell id="2mwsBVRWDG2e_CRYkT2q-19" value="" style="html=1;points=[];perimeter=orthogonalPerimeter;rounded=1;shadow=0;sketch=1;fillStyle=auto;fillColor=#f8cecc;strokeColor=#b85450;strokeWidth=4;fontStyle=1;fontSize=15;" vertex="1" parent="2mwsBVRWDG2e_CRYkT2q-8">
          <mxGeometry x="56.7" y="160.32" width="10" height="39.68" as="geometry" />
        </mxCell>
        <mxCell id="2mwsBVRWDG2e_CRYkT2q-22" value="" style="html=1;points=[];perimeter=orthogonalPerimeter;rounded=1;shadow=0;sketch=1;fillStyle=auto;fillColor=#dae8fc;strokeColor=#6c8ebf;strokeWidth=4;fontStyle=1;fontSize=15;" vertex="1" parent="2mwsBVRWDG2e_CRYkT2q-8">
          <mxGeometry x="56.7" y="520" width="10" height="40.32" as="geometry" />
        </mxCell>
        <mxCell id="2mwsBVRWDG2e_CRYkT2q-18" value="" style="endArrow=classic;html=1;rounded=0;fillColor=#f8cecc;strokeColor=#b85450;strokeWidth=4;sketch=1;shadow=1;fontStyle=1;fontSize=15;" edge="1" parent="2mwsBVRWDG2e_CRYkT2q-8">
          <mxGeometry width="50" height="50" relative="1" as="geometry">
            <mxPoint x="50" y="199.64999999999998" as="sourcePoint" />
            <mxPoint x="-320" y="199.64999999999998" as="targetPoint" />
            <Array as="points">
              <mxPoint x="-118.29999999999995" y="199.96999999999997" />
            </Array>
          </mxGeometry>
        </mxCell>
        <mxCell id="2mwsBVRWDG2e_CRYkT2q-24" value="" style="endArrow=classic;html=1;rounded=0;fillColor=#d5e8d4;strokeColor=#82b366;strokeWidth=5;sketch=1;shadow=1;fontStyle=1;fontSize=15;" edge="1" parent="1">
          <mxGeometry width="50" height="50" relative="1" as="geometry">
            <mxPoint x="570" y="558" as="sourcePoint" />
            <mxPoint x="400" y="558" as="targetPoint" />
          </mxGeometry>
        </mxCell>
        <mxCell id="2mwsBVRWDG2e_CRYkT2q-25" value="" style="endArrow=classic;html=1;rounded=0;strokeWidth=4;sketch=1;shadow=1;fillColor=#dae8fc;strokeColor=#6c8ebf;fontStyle=1;fontSize=15;" edge="1" parent="1">
          <mxGeometry width="50" height="50" relative="1" as="geometry">
            <mxPoint x="400" y="679.33" as="sourcePoint" />
            <mxPoint x="770" y="679.33" as="targetPoint" />
          </mxGeometry>
        </mxCell>
        <mxCell id="2mwsBVRWDG2e_CRYkT2q-27" value="" style="endArrow=block;html=1;rounded=1;strokeWidth=4;endFill=1;sketch=1;shadow=1;strokeColor=#6c8ebf;fillColor=#dae8fc;fontStyle=1;fontSize=15;" edge="1" parent="1">
          <mxGeometry width="50" height="50" relative="1" as="geometry">
            <mxPoint x="770" y="718" as="sourcePoint" />
            <mxPoint x="400" y="718" as="targetPoint" />
          </mxGeometry>
        </mxCell>
        <mxCell id="2mwsBVRWDG2e_CRYkT2q-30" value="" style="endArrow=classic;html=1;rounded=0;entryX=-0.275;entryY=0.018;entryDx=0;entryDy=0;entryPerimeter=0;fillColor=#fff2cc;strokeColor=#d6b656;sketch=1;strokeWidth=5;shadow=1;fontStyle=1;fontSize=15;" edge="1" parent="1" source="2mwsBVRWDG2e_CRYkT2q-2" target="2mwsBVRWDG2e_CRYkT2q-28">
          <mxGeometry width="50" height="50" relative="1" as="geometry">
            <mxPoint x="240" y="370" as="sourcePoint" />
            <mxPoint x="290" y="320" as="targetPoint" />
          </mxGeometry>
        </mxCell>
        <mxCell id="2mwsBVRWDG2e_CRYkT2q-31" value="" style="endArrow=classic;html=1;rounded=0;exitX=-0.15;exitY=0.985;exitDx=0;exitDy=0;exitPerimeter=0;fillColor=#fff2cc;strokeColor=#d6b656;sketch=1;strokeWidth=5;shadow=1;" edge="1" parent="1" source="2mwsBVRWDG2e_CRYkT2q-28" target="2mwsBVRWDG2e_CRYkT2q-2">
          <mxGeometry width="50" height="50" relative="1" as="geometry">
            <mxPoint x="250" y="850" as="sourcePoint" />
            <mxPoint x="300" y="800" as="targetPoint" />
          </mxGeometry>
        </mxCell>
        <mxCell id="2mwsBVRWDG2e_CRYkT2q-32" value="写入redolog" style="text;html=1;align=center;verticalAlign=middle;resizable=0;points=[];autosize=1;strokeColor=none;fillColor=none;fontStyle=1;fontSize=15;" vertex="1" parent="1">
          <mxGeometry x="625" y="290" width="110" height="30" as="geometry" />
        </mxCell>
        <mxCell id="2mwsBVRWDG2e_CRYkT2q-33" value="写入binlog" style="text;html=1;align=center;verticalAlign=middle;resizable=0;points=[];autosize=1;strokeColor=none;fillColor=none;fontStyle=1;fontSize=15;" vertex="1" parent="1">
          <mxGeometry x="435" y="485" width="100" height="30" as="geometry" />
        </mxCell>
        <mxCell id="2mwsBVRWDG2e_CRYkT2q-34" value="设置redolog状态commit" style="text;html=1;align=center;verticalAlign=middle;resizable=0;points=[];autosize=1;strokeColor=none;fillColor=none;fontStyle=1;fontSize=15;" vertex="1" parent="1">
          <mxGeometry x="585" y="650" width="190" height="30" as="geometry" />
        </mxCell>
        <mxCell id="2mwsBVRWDG2e_CRYkT2q-35" value="事务提交" style="text;html=1;align=center;verticalAlign=middle;resizable=0;points=[];autosize=1;strokeColor=none;fillColor=none;fontStyle=1;fontSize=15;" vertex="1" parent="1">
          <mxGeometry x="225" y="210" width="80" height="30" as="geometry" />
        </mxCell>
        <mxCell id="2mwsBVRWDG2e_CRYkT2q-36" value="ok" style="text;html=1;align=center;verticalAlign=middle;resizable=0;points=[];autosize=1;strokeColor=none;fillColor=none;fontStyle=1;fontSize=15;" vertex="1" parent="1">
          <mxGeometry x="240" y="760" width="40" height="30" as="geometry" />
        </mxCell>
        <mxCell id="2mwsBVRWDG2e_CRYkT2q-37" value="ok" style="text;html=1;align=center;verticalAlign=middle;resizable=0;points=[];autosize=1;strokeColor=none;fillColor=none;fontStyle=1;fontSize=15;" vertex="1" parent="1">
          <mxGeometry x="650" y="330" width="40" height="30" as="geometry" />
        </mxCell>
        <mxCell id="2mwsBVRWDG2e_CRYkT2q-38" value="ok" style="text;html=1;align=center;verticalAlign=middle;resizable=0;points=[];autosize=1;strokeColor=none;fillColor=none;fontStyle=1;fontSize=15;" vertex="1" parent="1">
          <mxGeometry x="450" y="530" width="40" height="30" as="geometry" />
        </mxCell>
        <mxCell id="2mwsBVRWDG2e_CRYkT2q-39" value="ok" style="text;html=1;align=center;verticalAlign=middle;resizable=0;points=[];autosize=1;strokeColor=none;fillColor=none;fontStyle=1;fontSize=15;" vertex="1" parent="1">
          <mxGeometry x="660" y="690" width="40" height="30" as="geometry" />
        </mxCell>
        <mxCell id="2mwsBVRWDG2e_CRYkT2q-43" value="" style="endArrow=none;dashed=1;html=1;rounded=1;shadow=1;sketch=1;strokeColor=default;strokeWidth=3;fontSize=20;fontColor=#330000;" edge="1" parent="1">
          <mxGeometry width="50" height="50" relative="1" as="geometry">
            <mxPoint x="80" y="440" as="sourcePoint" />
            <mxPoint x="990" y="440" as="targetPoint" />
          </mxGeometry>
        </mxCell>
        <mxCell id="2mwsBVRWDG2e_CRYkT2q-45" value="时刻A" style="edgeLabel;html=1;align=center;verticalAlign=middle;resizable=0;points=[];fontSize=20;fontColor=#330000;fontStyle=1;labelBackgroundColor=none;" vertex="1" connectable="0" parent="2mwsBVRWDG2e_CRYkT2q-43">
          <mxGeometry x="-0.9314" y="1" relative="1" as="geometry">
            <mxPoint x="-73" as="offset" />
          </mxGeometry>
        </mxCell>
        <mxCell id="2mwsBVRWDG2e_CRYkT2q-44" value="" style="endArrow=none;dashed=1;html=1;rounded=1;shadow=1;sketch=1;strokeColor=default;strokeWidth=3;fontSize=20;fontColor=#330000;" edge="1" parent="1">
          <mxGeometry width="50" height="50" relative="1" as="geometry">
            <mxPoint x="80" y="620" as="sourcePoint" />
            <mxPoint x="1000" y="620" as="targetPoint" />
          </mxGeometry>
        </mxCell>
        <mxCell id="2mwsBVRWDG2e_CRYkT2q-46" value="时刻B" style="edgeLabel;html=1;align=center;verticalAlign=middle;resizable=0;points=[];fontSize=20;fontColor=#330000;fontStyle=1" vertex="1" connectable="0" parent="2mwsBVRWDG2e_CRYkT2q-44">
          <mxGeometry x="-0.9555" y="4" relative="1" as="geometry">
            <mxPoint x="-61" as="offset" />
          </mxGeometry>
        </mxCell>
        <mxCell id="2mwsBVRWDG2e_CRYkT2q-47" value="" style="shape=curlyBracket;whiteSpace=wrap;html=1;rounded=1;flipH=1;shadow=0;labelBackgroundColor=none;sketch=0;fillStyle=auto;strokeColor=default;strokeWidth=3;fontSize=20;fontColor=#330000;gradientColor=none;" vertex="1" parent="1">
          <mxGeometry x="1040" y="280" width="20" height="120" as="geometry" />
        </mxCell>
        <mxCell id="2mwsBVRWDG2e_CRYkT2q-48" value="" style="shape=curlyBracket;whiteSpace=wrap;html=1;rounded=1;flipH=1;shadow=0;labelBackgroundColor=none;sketch=0;fillStyle=auto;strokeColor=default;strokeWidth=3;fontSize=20;fontColor=#330000;gradientColor=none;" vertex="1" parent="1">
          <mxGeometry x="1040" y="485" width="20" height="275" as="geometry" />
        </mxCell>
        <mxCell id="2mwsBVRWDG2e_CRYkT2q-50" value="prepare阶段" style="text;html=1;align=center;verticalAlign=middle;resizable=0;points=[];autosize=1;strokeColor=none;fillColor=none;fontSize=20;fontColor=#330000;fontStyle=1" vertex="1" parent="1">
          <mxGeometry x="1065" y="320" width="140" height="40" as="geometry" />
        </mxCell>
        <mxCell id="2mwsBVRWDG2e_CRYkT2q-51" value="commit阶段" style="text;html=1;align=center;verticalAlign=middle;resizable=0;points=[];autosize=1;strokeColor=none;fillColor=none;fontSize=20;fontColor=#330000;fontStyle=1" vertex="1" parent="1">
          <mxGeometry x="1070" y="602.5" width="130" height="40" as="geometry" />
        </mxCell>
      </root>
    </mxGraphModel>
  </diagram>
</mxfile>
